<svg width="27" height="27" viewBox="0 0 27 27" fill="none" xmlns="http://www.w3.org/2000/svg">
<path d="M5.16154 5.16136C5.43043 4.8892 5.76497 4.691 6.13283 4.5859C6.5007 4.48079 6.88945 4.47234 7.26154 4.56136L19.2615 7.08886C19.9526 7.18363 20.6035 7.46947 21.1409 7.91417C21.6783 8.35887 22.0809 8.94478 22.3033 9.60591C22.5257 10.267 22.5591 10.9771 22.3997 11.6562C22.2404 12.3353 21.8946 12.9564 21.4013 13.4496L20.1128 14.7374C20.043 14.8071 19.9877 14.8899 19.95 14.981C19.9123 15.0721 19.893 15.1697 19.893 15.2684V17.6444C19.8914 17.9784 19.8145 18.3078 19.668 18.6081L19.674 18.6134L19.6545 18.6329C19.4348 19.0747 19.0758 19.4321 18.633 19.6499L18.6135 19.6694L18.6083 19.6634C18.308 19.8098 17.9786 19.8867 17.6445 19.8884H15.2685C15.0697 19.8882 14.879 19.967 14.7383 20.1074L13.4505 21.3951C13.1051 21.7443 12.694 22.0217 12.2409 22.2113C11.7879 22.4009 11.3017 22.499 10.8105 22.4999C10.4012 22.4993 9.9947 22.4325 9.60679 22.3019C8.9517 22.0868 8.36976 21.6929 7.92661 21.1646C7.48346 20.6364 7.19674 19.9949 7.09879 19.3124L4.56754 7.28611C4.4739 6.91084 4.47942 6.51767 4.58355 6.14518C4.68769 5.77269 4.88686 5.43366 5.16154 5.16136ZM19.0508 13.6784L20.34 12.3906C20.6402 12.0976 20.8507 11.7251 20.9466 11.3167C21.0425 10.9084 21.0199 10.4811 20.8815 10.0851C20.7474 9.67885 20.4993 9.31968 20.1669 9.05031C19.8345 8.78093 19.4318 8.6127 19.0065 8.56561L7.12579 6.06436L18.3945 17.3346V15.2684C18.3934 14.9731 18.4508 14.6806 18.5635 14.4076C18.6761 14.1347 18.8417 13.8869 19.0508 13.6784ZM8.57254 19.0559C8.63012 19.4701 8.80203 19.8601 9.06896 20.1821C9.33589 20.5041 9.68728 20.7453 10.0837 20.8786C10.4801 21.012 10.9058 21.0322 11.3131 20.937C11.7203 20.8419 12.093 20.6351 12.3893 20.3399L13.6793 19.0499C13.8875 18.8405 14.1352 18.6745 14.408 18.5615C14.6808 18.4484 14.9733 18.3906 15.2685 18.3914H17.3348L6.06454 7.12486L8.57254 19.0559Z" fill="#B9D7EE"/>
<path d="M8.57254 19.0559C8.63012 19.4701 8.80203 19.8601 9.06896 20.1821C9.33589 20.5041 9.68728 20.7453 10.0837 20.8786C10.4801 21.012 10.9058 21.0322 11.3131 20.937C11.7203 20.8419 12.093 20.6351 12.3893 20.3399L13.6793 19.0499C13.8875 18.8405 14.1352 18.6745 14.408 18.5615C14.6808 18.4484 14.9733 18.3906 15.2685 18.3914H17.3348L6.06454 7.12486L8.57254 19.0559Z" fill="#B9D7EE"/>
<path d="M5.16154 5.16136C5.43043 4.8892 5.76497 4.691 6.13283 4.5859C6.5007 4.48079 6.88945 4.47234 7.26154 4.56136L19.2615 7.08886C19.9526 7.18363 20.6035 7.46947 21.1409 7.91417C21.6783 8.35887 22.0809 8.94478 22.3033 9.60591C22.5257 10.267 22.5591 10.9771 22.3997 11.6562C22.2404 12.3353 21.8946 12.9564 21.4013 13.4496L20.1128 14.7374C20.043 14.8071 19.9877 14.8899 19.95 14.981C19.9123 15.0721 19.893 15.1697 19.893 15.2684V17.6444C19.8914 17.9784 19.8145 18.3078 19.668 18.6081L19.674 18.6134L19.6545 18.6329C19.4348 19.0747 19.0758 19.4321 18.633 19.6499L18.6135 19.6694L18.6083 19.6634C18.308 19.8098 17.9786 19.8867 17.6445 19.8884H15.2685C15.0697 19.8882 14.879 19.967 14.7383 20.1074L13.4505 21.3951C13.1051 21.7443 12.694 22.0217 12.241 22.2113C11.7879 22.4009 11.3017 22.499 10.8105 22.4999C10.4012 22.4993 9.9947 22.4325 9.60679 22.3019C8.9517 22.0868 8.36976 21.6929 7.92661 21.1646C7.48346 20.6364 7.19674 19.9949 7.09879 19.3124L4.56754 7.28611C4.4739 6.91084 4.47942 6.51767 4.58355 6.14518C4.68769 5.77269 4.88686 5.43366 5.16154 5.16136ZM19.0508 13.6784L20.34 12.3906C20.6402 12.0976 20.8507 11.7251 20.9466 11.3167C21.0425 10.9084 21.0199 10.4811 20.8815 10.0851C20.7474 9.67885 20.4993 9.31968 20.1669 9.05031C19.8345 8.78093 19.4318 8.6127 19.0065 8.56561L7.12579 6.06436L18.3945 17.3346V15.2684C18.3934 14.9731 18.4508 14.6806 18.5635 14.4076C18.6761 14.1347 18.8417 13.8869 19.0508 13.6784ZM8.57254 19.0559C8.63012 19.4701 8.80203 19.8601 9.06896 20.1821C9.33589 20.5041 9.68728 20.7453 10.0837 20.8786C10.4801 21.012 10.9058 21.0322 11.3131 20.937C11.7203 20.8419 12.093 20.6351 12.3893 20.3399L13.6793 19.0499C13.8875 18.8405 14.1352 18.6745 14.408 18.5615C14.6808 18.4484 14.9733 18.3906 15.2685 18.3914H17.3348L6.06454 7.12486L8.57254 19.0559Z" fill="#057CC1"/>
</svg>
